<?xml version="1.0" standalone="no"?>
<!DOCTYPE svg PUBLIC "-//W3C//DTD SVG 20010904//EN"
 "http://www.w3.org/TR/2001/REC-SVG-20010904/DTD/svg10.dtd">
<svg version="1.0" xmlns="http://www.w3.org/2000/svg"
 width="200.000000pt" height="200.000000pt" viewBox="0 0 200.000000 200.000000"
 preserveAspectRatio="xMidYMid meet">

<g transform="translate(0.000000,200.000000) scale(0.100000,-0.100000)"
fill="#000000" stroke="none">
<path d="M590 1711 l0 -51 -207 -2 -208 -3 -3 -708 -2 -707 830 0 830 0 -2
708 -3 707 -207 3 -208 2 0 51 0 50 -32 -3 c-32 -3 -33 -5 -36 -50 l-3 -48
-339 0 -339 0 -3 48 c-3 45 -4 47 -35 50 l-33 3 0 -50z m-2 -179 l3 -53 32 3
c31 3 32 5 35 56 l3 52 339 0 339 0 3 -52 c3 -51 4 -53 35 -56 l32 -3 3 53 3
53 173 3 172 2 0 -105 0 -105 -760 0 -760 0 0 105 0 105 173 -2 172 -3 3 -53z
m1172 -722 l0 -500 -760 0 -760 0 0 500 0 500 760 0 760 0 0 -500z"/>
<path d="M930 1036 l-95 -33 -3 -36 -3 -36 57 19 c31 11 63 20 71 20 10 0 13
-41 13 -210 l0 -210 30 0 30 0 0 260 c0 143 -1 260 -2 259 -2 0 -46 -15 -98
-33z"/>
</g>
</svg>
