<?xml version="1.0" standalone="no"?>
<!DOCTYPE svg PUBLIC "-//W3C//DTD SVG 20010904//EN"
 "http://www.w3.org/TR/2001/REC-SVG-20010904/DTD/svg10.dtd">
<svg version="1.0" xmlns="http://www.w3.org/2000/svg"
 width="225.000000pt" height="225.000000pt" viewBox="0 0 225.000000 225.000000"
 preserveAspectRatio="xMidYMid meet">

<g transform="translate(0.000000,225.000000) scale(0.100000,-0.100000)"
fill="#000000" stroke="none">
<path d="M0 1125 l0 -1125 1125 0 1125 0 0 70 0 70 -1055 0 -1055 0 0 1055 0
1055 -70 0 -70 0 0 -1125z"/>
<path d="M1437 1810 c-30 -24 -36 -64 -13 -96 13 -18 31 -19 240 -24 l226 -5
-241 -295 c-133 -162 -243 -297 -245 -300 -3 -2 -92 83 -198 189 -213 213
-223 219 -276 165 -29 -31 -549 -745 -568 -781 -24 -44 16 -96 70 -91 31 3 49
25 297 366 l265 363 190 -190 c231 -230 224 -228 313 -123 32 37 150 181 263
319 l205 251 5 -200 c5 -183 7 -201 24 -214 25 -18 67 -18 92 0 18 14 19 31
22 324 3 294 2 310 -17 333 l-19 24 -304 3 c-297 3 -305 2 -331 -18z"/>
</g>
</svg>
