<?xml version="1.0" standalone="no"?>
<!DOCTYPE svg PUBLIC "-//W3C//DTD SVG 20010904//EN"
 "http://www.w3.org/TR/2001/REC-SVG-20010904/DTD/svg10.dtd">
<svg version="1.0" xmlns="http://www.w3.org/2000/svg"
 width="866.000000pt" height="650.000000pt" viewBox="0 0 866.000000 650.000000"
 preserveAspectRatio="xMidYMid meet">

<g transform="translate(0.000000,650.000000) scale(0.100000,-0.100000)"
fill="#000000" stroke="none">
<path d="M5325 5079 c-170 -44 -318 -88 -327 -96 -40 -36 -9 -123 45 -123 12
0 155 34 317 75 162 41 305 75 318 75 31 0 69 -40 81 -86 26 -99 43 -84 -146
-131 -92 -24 -404 -103 -693 -177 -289 -74 -784 -200 -1100 -281 -1086 -277
-1825 -466 -1842 -471 -13 -4 -19 9 -34 70 -16 70 -16 76 0 101 9 14 27 30 39
35 12 6 252 68 532 139 281 72 706 180 945 241 239 61 595 152 790 201 392 99
407 104 420 130 25 46 -9 109 -60 109 -12 0 -163 -36 -334 -79 -999 -256
-1682 -430 -1981 -506 -187 -47 -357 -93 -378 -102 -79 -34 -148 -157 -132
-236 16 -75 547 -2155 557 -2181 39 -99 160 -162 266 -138 l42 10 0 -63 c0
-115 47 -195 140 -239 l45 -21 1905 -3 c1313 -2 1921 1 1955 8 70 15 119 51
155 113 l30 52 0 1153 c0 1152 0 1152 -21 1197 -12 25 -35 57 -53 72 -66 55
-79 58 -380 63 l-279 5 -103 405 c-151 596 -154 606 -185 654 -36 57 -102 96
-171 102 -43 3 -113 -12 -363 -77z m543 -588 c29 -110 52 -206 52 -213 0 -9
-172 -57 -543 -151 l-542 -138 -880 1 -880 1 425 110 c234 60 841 215 1350
345 509 130 927 238 929 240 2 2 12 4 21 4 13 0 27 -40 68 -199z m112 -438
l17 -63 -271 1 c-149 0 -266 2 -261 5 28 11 472 122 484 121 8 -1 21 -28 31
-64z m-3307 -195 c-15 -28 -19 -64 -21 -230 l-4 -198 -26 -7 c-15 -3 -136 -34
-270 -68 -164 -42 -245 -59 -247 -51 -17 50 -105 409 -102 412 2 3 130 36 283
75 154 39 299 77 324 84 25 8 53 14 63 14 17 1 17 0 0 -31z m4034 -42 l28 -24
3 -1116 c3 -1221 5 -1164 -54 -1186 -39 -15 -3809 -13 -3837 2 -48 25 -46 -23
-47 1169 0 1189 -2 1142 45 1167 14 8 566 11 1927 12 l1907 0 28 -24z m-4057
-1271 l0 -734 -37 -10 c-56 -16 -79 -13 -108 12 -24 20 -42 81 -180 622 -84
330 -159 626 -168 657 l-15 56 62 17 c33 9 147 38 251 65 105 26 191 49 193
49 1 1 2 -330 2 -734z"/>
<path d="M5267 3519 c-77 -18 -152 -62 -218 -128 -195 -195 -199 -506 -10
-705 65 -68 118 -101 202 -127 114 -36 262 -17 363 45 l40 24 53 -30 c219
-124 494 -43 626 183 33 56 67 185 67 253 -1 174 -107 359 -251 436 -148 79
-282 80 -431 5 l-68 -34 -47 29 c-86 53 -223 73 -326 49z m226 -167 l46 -20
-29 -54 c-79 -145 -79 -341 0 -486 l29 -54 -47 -21 c-67 -31 -189 -30 -252 2
-208 107 -259 379 -104 551 93 103 236 136 357 82z m564 -7 c200 -98 248 -379
92 -549 -68 -74 -130 -101 -234 -100 -66 0 -88 5 -130 26 -71 37 -123 93 -159
168 -25 54 -30 76 -30 145 0 67 4 90 27 140 82 177 269 250 434 170z"/>
<path d="M3236 3443 c-65 -22 -137 -93 -159 -157 -14 -40 -17 -89 -17 -251 0
-239 8 -274 80 -345 71 -72 106 -80 345 -80 239 0 274 8 346 80 74 74 81 108
77 362 l-3 213 -30 54 c-34 62 -99 115 -162 130 -23 6 -129 11 -235 10 -150 0
-204 -4 -242 -16z m436 -133 c40 -12 88 -61 88 -91 0 -17 -8 -19 -89 -19 -85
0 -91 -1 -110 -26 -26 -34 -26 -54 -1 -87 19 -24 27 -26 113 -29 91 -3 92 -3
92 -28 0 -25 -2 -25 -94 -30 -82 -5 -95 -8 -112 -29 -26 -32 -24 -67 6 -96 22
-23 32 -25 110 -25 47 0 85 -4 85 -9 0 -18 -45 -64 -76 -77 -35 -15 -320 -20
-383 -8 -35 7 -91 57 -91 80 0 11 18 14 85 14 79 0 88 2 112 26 20 20 24 31
19 57 -11 54 -27 62 -132 65 l-95 4 3 26 c3 27 4 27 95 30 86 3 94 5 113 29
25 33 25 53 -1 87 -19 25 -25 26 -110 26 -81 0 -89 2 -89 19 0 29 47 80 83 90
44 13 334 13 379 1z"/>
<path d="M3043 2183 c-28 -5 -53 -39 -53 -71 0 -12 11 -34 25 -47 l24 -25 825
0 c514 0 834 4 850 10 32 12 51 50 42 85 -14 56 -1 55 -883 54 -444 -1 -818
-4 -830 -6z"/>
<path d="M3080 1880 c-27 -27 -26 -74 2 -100 20 -18 35 -20 189 -20 147 0 169
2 190 18 28 23 30 73 4 102 -17 19 -30 20 -192 20 -160 0 -175 -2 -193 -20z"/>
<path d="M3790 1880 c-11 -11 -20 -33 -20 -50 0 -17 9 -39 20 -50 20 -20 33
-20 1320 -20 l1301 0 24 25 c14 13 25 31 25 40 0 20 -19 57 -34 67 -6 4 -597
8 -1313 8 -1290 0 -1303 0 -1323 -20z"/>
</g>
</svg>
