<?xml version="1.0" standalone="no"?>
<!DOCTYPE svg PUBLIC "-//W3C//DTD SVG 20010904//EN"
 "http://www.w3.org/TR/2001/REC-SVG-20010904/DTD/svg10.dtd">
<svg version="1.0" xmlns="http://www.w3.org/2000/svg"
 width="537.000000pt" height="397.000000pt" viewBox="0 0 537.000000 397.000000"
 preserveAspectRatio="xMidYMid meet">

<g transform="translate(0.000000,397.000000) scale(0.100000,-0.100000)"
fill="#000000" stroke="none">
<path d="M3615 3869 c-170 -44 -318 -87 -327 -96 -40 -36 -9 -123 44 -123 13
0 159 34 325 76 197 50 310 74 327 70 14 -3 33 -17 42 -31 15 -23 49 -134 42
-140 -2 -1 -86 -23 -188 -48 -102 -26 -414 -105 -695 -177 -280 -72 -764 -196
-1075 -275 -1069 -272 -1825 -466 -1841 -471 -13 -3 -20 9 -33 60 -21 84 -20
90 7 121 26 30 -118 -9 1527 410 1240 315 1200 303 1200 364 0 33 -37 71 -69
71 -20 0 -341 -80 -1146 -286 -121 -31 -517 -132 -879 -225 -498 -127 -669
-175 -697 -194 -76 -50 -116 -146 -99 -236 5 -25 97 -392 205 -815 108 -423
228 -893 266 -1044 39 -151 75 -288 82 -304 38 -99 159 -162 265 -138 l42 10
0 -62 c0 -33 5 -78 11 -99 14 -51 73 -115 129 -141 l45 -21 1905 -3 c1315 -2
1920 1 1955 8 68 15 121 54 156 115 l29 50 0 1153 c0 945 -2 1158 -13 1185
-22 50 -63 93 -115 119 -45 22 -59 23 -326 28 l-279 5 -129 505 c-141 553
-148 572 -229 623 -82 50 -113 47 -464 -44z m543 -588 c29 -110 52 -206 52
-213 0 -9 -172 -57 -543 -151 l-542 -138 -880 1 -880 2 225 58 c124 31 529
135 900 230 371 95 880 225 1130 290 250 65 462 118 471 119 12 1 27 -42 67
-198z m112 -438 l17 -63 -271 1 c-149 0 -266 2 -261 5 28 11 472 122 484 121
8 -1 21 -28 31 -64z m-3290 -168 c0 -3 -8 -18 -17 -32 -15 -23 -18 -57 -21
-225 l-4 -198 -26 -7 c-15 -3 -136 -34 -270 -68 -164 -42 -245 -59 -247 -51
-16 48 -105 409 -102 412 6 6 648 172 670 173 9 1 17 -1 17 -4z m4017 -69 l28
-24 3 -1116 c3 -1221 5 -1164 -54 -1186 -39 -15 -3809 -13 -3837 2 -48 25 -46
-23 -47 1169 0 1189 -2 1142 45 1167 14 8 566 11 1927 12 l1907 0 28 -24z
m-4057 -1271 l0 -734 -37 -10 c-56 -16 -79 -13 -108 12 -28 24 -13 -32 -284
1032 l-76 300 25 9 c14 5 126 35 250 67 124 32 226 58 228 58 1 1 2 -330 2
-734z"/>
<path d="M3563 2310 c-77 -16 -155 -61 -224 -129 -155 -156 -192 -377 -96
-581 34 -73 120 -169 185 -207 139 -82 314 -83 458 -3 l50 28 40 -24 c61 -38
158 -64 234 -64 300 0 527 303 455 608 -32 136 -137 277 -248 331 -143 69
-277 68 -419 -4 l-68 -34 -47 29 c-86 53 -208 72 -320 50z m222 -169 l44 -19
-29 -54 c-77 -142 -79 -323 -6 -472 l33 -68 -46 -22 c-66 -30 -188 -29 -251 3
-208 107 -259 379 -104 551 93 103 237 135 359 81z m562 -6 c66 -33 136 -110
162 -181 28 -74 28 -184 0 -259 -27 -73 -103 -155 -171 -186 -78 -35 -193 -33
-265 4 -72 37 -120 88 -156 166 -26 55 -31 77 -31 146 0 66 4 90 26 136 83
180 269 255 435 174z"/>
<path d="M1526 2232 c-64 -21 -138 -94 -160 -158 -13 -38 -16 -90 -16 -249 0
-239 8 -274 80 -345 71 -72 106 -80 345 -80 239 0 274 8 346 80 74 74 81 108
77 362 l-3 213 -31 55 c-33 60 -99 112 -162 130 -20 5 -125 10 -232 9 -152 0
-206 -4 -244 -17z m436 -132 c40 -12 88 -61 88 -91 0 -17 -8 -19 -89 -19 -85
0 -91 -1 -110 -26 -27 -35 -27 -65 2 -92 19 -18 37 -22 112 -24 89 -3 90 -3
93 -30 l3 -26 -96 -4 c-87 -3 -99 -5 -116 -27 -26 -32 -24 -67 6 -96 22 -23
32 -25 110 -25 47 0 85 -4 85 -9 0 -22 -54 -71 -88 -82 -55 -16 -381 -8 -408
10 -20 13 -54 61 -54 75 0 3 38 6 85 6 79 0 88 2 112 26 20 20 24 31 19 57
-11 54 -27 62 -132 65 l-95 4 3 26 c3 27 4 27 95 30 86 3 94 5 113 29 25 33
25 53 -1 87 -19 25 -25 26 -110 26 -81 0 -89 2 -89 19 0 29 47 80 83 90 44 13
334 13 379 1z"/>
<path d="M1333 973 c-54 -10 -71 -88 -27 -122 27 -21 32 -21 850 -21 513 0
832 4 848 10 55 21 59 98 6 125 -25 13 -133 15 -842 14 -447 -1 -823 -4 -835
-6z"/>
<path d="M1370 670 c-27 -27 -26 -74 2 -100 20 -18 35 -20 189 -20 147 0 169
2 190 18 28 23 30 73 4 102 -17 19 -30 20 -192 20 -160 0 -175 -2 -193 -20z"/>
<path d="M2080 670 c-11 -11 -20 -33 -20 -50 0 -17 9 -39 20 -50 20 -20 33
-20 1320 -20 l1301 0 24 25 c14 13 25 31 25 40 0 20 -19 57 -34 67 -6 4 -597
8 -1313 8 -1290 0 -1303 0 -1323 -20z"/>
</g>
</svg>
